<svg width="28" height="30" viewBox="0 0 28 30" fill="none" xmlns="http://www.w3.org/2000/svg">
<g clip-path="url(#clip0_668_7671)">
<path d="M16.8937 3.00945C16.7582 2.38304 16.4206 1.82804 15.9404 1.44238C15.4601 1.05672 14.8682 0.865195 14.269 0.901594C13.6699 0.937992 13.1019 1.19998 12.6655 1.64132C12.229 2.08267 11.9521 2.675 11.8836 3.3138C11.8151 3.9526 11.9593 4.59681 12.2909 5.13275C12.6225 5.66868 13.1201 6.0619 13.696 6.24301C14.2718 6.42413 14.8889 6.38149 15.4382 6.12264C15.9876 5.86378 16.434 5.40533 16.6986 4.8282C18.3095 5.22091 19.8071 6.02775 21.062 7.17908C22.3169 8.3304 23.2915 9.79163 23.9016 11.4366L25.4547 10.7823C24.736 8.83114 23.5784 7.10058 22.0848 5.7445C20.5912 4.38843 18.808 3.44889 16.8937 3.00945ZM14.4244 4.54508C14.3108 4.54899 14.1975 4.52838 14.0914 4.48446C13.9853 4.44054 13.8885 4.37422 13.8068 4.28944C13.725 4.20465 13.6601 4.10313 13.6157 3.99091C13.5713 3.87868 13.5484 3.75805 13.5484 3.63617C13.5484 3.51429 13.5713 3.39366 13.6157 3.28143C13.6601 3.16921 13.725 3.06769 13.8068 2.9829C13.8885 2.89812 13.9853 2.8318 14.0914 2.78788C14.1975 2.74397 14.3108 2.72335 14.4244 2.72726C14.6495 2.72726 14.8654 2.82307 15.0246 2.99361C15.1838 3.16415 15.2732 3.39546 15.2732 3.63664C15.2732 3.87782 15.1838 4.10912 15.0246 4.27966C14.8654 4.45021 14.6495 4.54508 14.4244 4.54508ZM10.6908 5.3007L10.0634 3.63758C8.2424 4.40759 6.62721 5.6479 5.36154 7.24817C4.09587 8.84843 3.21896 10.7591 2.80882 12.8101C2.22417 12.9552 1.70617 13.317 1.34622 13.8315C0.986276 14.346 0.807515 14.9802 0.841487 15.6222C0.875459 16.2642 1.11998 16.8727 1.5319 17.3403C1.94382 17.8079 2.49667 18.1046 3.09288 18.178C3.6891 18.2515 4.29036 18.0969 4.79056 17.7416C5.29077 17.3863 5.65777 16.8532 5.82681 16.2362C5.99585 15.6192 5.95606 14.9581 5.71446 14.3695C5.47286 13.7809 5.04498 13.3026 4.50632 13.0191C4.87436 11.2911 5.62987 9.68513 6.70746 8.34026C7.78505 6.99539 9.15228 5.95211 10.6908 5.3007ZM3.39332 16.3651C3.28186 16.3651 3.17149 16.3416 3.06852 16.2959C2.96554 16.2502 2.87198 16.1832 2.79316 16.0987C2.71435 16.0143 2.65183 15.914 2.60918 15.8037C2.56652 15.6934 2.54457 15.5751 2.54457 15.4557C2.54457 15.3363 2.56652 15.218 2.60918 15.1077C2.65183 14.9974 2.71435 14.8971 2.79316 14.8127C2.87198 14.7282 2.96554 14.6612 3.06852 14.6155C3.17149 14.5698 3.28186 14.5463 3.39332 14.5463C3.61842 14.5463 3.83431 14.6421 3.99348 14.8127C4.15265 14.9832 4.24207 15.2145 4.24207 15.4557C4.24207 15.6969 4.15265 15.9282 3.99348 16.0987C3.83431 16.2693 3.61842 16.3651 3.39332 16.3651ZM14.4244 24.5466C13.9511 24.5483 13.4875 24.6913 13.0858 24.9596C12.6841 25.2278 12.3602 25.6108 12.1503 26.0654C10.5391 25.6727 9.04133 24.8658 7.78625 23.7143C6.53117 22.5628 5.55652 21.1013 4.94645 19.456L3.3942 20.1282C4.11522 22.0826 5.27671 23.8153 6.77498 25.1716C8.27325 26.5279 10.0617 27.4656 11.9806 27.901C12.0908 28.4015 12.3308 28.8584 12.6729 29.2191C13.015 29.5798 13.4453 29.8295 13.9142 29.9395C14.383 30.0495 14.8714 30.0153 15.3228 29.8408C15.7743 29.6662 16.1706 29.3586 16.4659 28.9532C16.7612 28.5478 16.9436 28.0613 16.992 27.5497C17.0404 27.0381 16.9529 26.5222 16.7395 26.0616C16.5261 25.6009 16.1956 25.2143 15.7859 24.9463C15.3763 24.6782 14.9044 24.5397 14.4244 24.5466ZM14.4244 28.1832C14.1993 28.1832 13.9835 28.0874 13.8243 27.9169C13.6651 27.7463 13.5757 27.515 13.5757 27.2738C13.5757 27.0326 13.6651 26.8013 13.8243 26.6308C13.9835 26.4603 14.1993 26.3645 14.4244 26.3645C14.6495 26.3645 14.8654 26.4603 15.0246 26.6308C15.1838 26.8013 15.2732 27.0326 15.2732 27.2738C15.2732 27.515 15.1838 27.7463 15.0246 27.9169C14.8654 28.0874 14.6495 28.1832 14.4244 28.1832ZM28.0001 15.4548C28.0016 14.968 27.8816 14.4897 27.6524 14.0694C27.4233 13.6491 27.0933 13.3021 26.6968 13.0645C26.3003 12.8269 25.8517 12.7072 25.3975 12.718C24.9433 12.7288 24.5 12.8695 24.1137 13.1257C23.7274 13.3819 23.4121 13.7442 23.2006 14.1749C22.989 14.6057 22.8888 15.0892 22.9105 15.5755C22.9321 16.0617 23.0748 16.5328 23.3237 16.94C23.5726 17.3473 23.9186 17.6757 24.3259 17.8913C23.9593 19.6174 23.2061 21.222 22.1314 22.5666C21.0567 23.9111 19.6927 24.9553 18.1572 25.6088L18.7854 27.2729C20.6096 26.5004 22.2268 25.2559 23.4927 23.6506C24.7585 22.0453 25.6337 20.1292 26.0401 18.0732C26.5924 17.9332 27.0853 17.5996 27.4404 17.1252C27.7955 16.6508 27.9925 16.0628 28.0001 15.4548ZM25.4538 16.3641C25.2287 16.3641 25.0128 16.2683 24.8537 16.0978C24.6945 15.9272 24.6051 15.6959 24.6051 15.4548C24.6051 15.2136 24.6945 14.9823 24.8537 14.8117C25.0128 14.6412 25.2287 14.5454 25.4538 14.5454C25.6789 14.5454 25.8948 14.6412 26.054 14.8117C26.2131 14.9823 26.3026 15.2136 26.3026 15.4548C26.3026 15.6959 26.2131 15.9272 26.054 16.0978C25.8948 16.2683 25.6789 16.3641 25.4538 16.3641Z" fill="#24288A"/>
<path d="M16.7911 15.328C17.2739 14.823 17.6052 14.1752 17.7428 13.4675C17.8803 12.7597 17.8178 12.0241 17.5633 11.3545C17.3088 10.685 16.8739 10.1119 16.314 9.7085C15.7541 9.30507 15.0946 9.0896 14.4199 9.0896C13.7452 9.0896 13.0857 9.30507 12.5258 9.7085C11.9659 10.1119 11.5309 10.685 11.2765 11.3545C11.022 12.0241 10.9595 12.7597 11.097 13.4675C11.2346 14.1752 11.5659 14.823 12.0486 15.328C11.474 15.744 11.0034 16.3045 10.6778 16.9606C10.3523 17.6166 10.1818 18.3482 10.1814 19.0912V20.909H18.6663V19.0902C18.665 18.3465 18.4933 17.6144 18.1664 16.9583C17.8394 16.3022 17.3672 15.743 16.7911 15.328ZM12.7268 12.7265C12.7268 12.4876 12.7707 12.2511 12.856 12.0305C12.9413 11.8098 13.0663 11.6093 13.224 11.4404C13.3816 11.2715 13.5687 11.1376 13.7747 11.0462C13.9806 10.9548 14.2014 10.9077 14.4243 10.9077C14.6472 10.9077 14.8679 10.9548 15.0739 11.0462C15.2798 11.1376 15.467 11.2715 15.6246 11.4404C15.7822 11.6093 15.9073 11.8098 15.9926 12.0305C16.0779 12.2511 16.1218 12.4876 16.1218 12.7265C16.1218 13.2088 15.9429 13.6715 15.6246 14.0125C15.3062 14.3536 14.8745 14.5452 14.4243 14.5452C13.9741 14.5452 13.5423 14.3536 13.224 14.0125C12.9056 13.6715 12.7268 13.2088 12.7268 12.7265ZM11.878 19.0902C11.8717 18.7278 11.933 18.3676 12.0581 18.0308C12.1832 17.694 12.3697 17.3873 12.6068 17.1286C12.8438 16.8698 13.1265 16.6644 13.4385 16.5241C13.7505 16.3838 14.0855 16.3115 14.4238 16.3115C14.7622 16.3115 15.0971 16.3838 15.4091 16.5241C15.7211 16.6644 16.0039 16.8698 16.2409 17.1286C16.4779 17.3873 16.6645 17.694 16.7896 18.0308C16.9147 18.3676 16.9759 18.7278 16.9696 19.0902H11.878Z" fill="#24288A"/>
</g>
<defs>
<clipPath id="clip0_668_7671">
<rect width="28" height="30" fill="white"/>
</clipPath>
</defs>
</svg>
